# xmcd CD database file
#
# Track frame offsets:
#	150
#	22025
#	76356
#	162272
#
# Disc length: 2578 seconds
#
# Revision: 1
# Processed by: cddbd v1.5PL3 Copyright (c) Steve Scherf et al.
# Submitted via: CDex 1.50
#
DISCID=260a1004
DTITLE=The Cream - The Cream Remasters 5 - EAST COAST [CD1]
DYEAR=2004
DGENRE=Psychedelic Rock
TTITLE0=Tales of Brave Ulysses
TTITLE1=Sunshine of Your Love
TTITLE2=N.S.U.
TTITLE3=Sitting On Top Of The World
EXTD=YEAR: 2004
EXTT0=
EXTT1=
EXTT2=
EXTT3=
PLAYORDER=
